<svg xmlns="http://www.w3.org/2000/svg" xmlns:xlink="http://www.w3.org/1999/xlink" width="70" zoomAndPan="magnify" viewBox="0 0 52.5 52.499999" height="70" preserveAspectRatio="xMidYMid meet" version="1.0"><defs><clipPath id="88e3dba998"><path d="M 0.605469 0.605469 L 51.605469 0.605469 L 51.605469 51.605469 L 0.605469 51.605469 Z M 0.605469 0.605469 " clip-rule="nonzero"/></clipPath></defs><g clip-path="url(#88e3dba998)"><path fill="#53798e" d="M 51.605469 26.105469 C 51.605469 26.9375 51.5625 27.773438 51.480469 28.605469 C 51.398438 29.433594 51.277344 30.261719 51.113281 31.078125 C 50.953125 31.898438 50.75 32.707031 50.507812 33.507812 C 50.265625 34.304688 49.984375 35.089844 49.664062 35.863281 C 49.34375 36.632812 48.988281 37.386719 48.59375 38.125 C 48.199219 38.859375 47.769531 39.578125 47.304688 40.269531 C 46.84375 40.964844 46.347656 41.636719 45.816406 42.28125 C 45.285156 42.925781 44.726562 43.542969 44.136719 44.136719 C 43.542969 44.726562 42.925781 45.285156 42.28125 45.816406 C 41.636719 46.347656 40.964844 46.84375 40.269531 47.304688 C 39.578125 47.769531 38.859375 48.199219 38.125 48.59375 C 37.386719 48.988281 36.632812 49.34375 35.863281 49.664062 C 35.089844 49.984375 34.304688 50.265625 33.507812 50.507812 C 32.707031 50.75 31.898438 50.953125 31.078125 51.113281 C 30.261719 51.277344 29.433594 51.398438 28.605469 51.480469 C 27.773438 51.5625 26.9375 51.605469 26.105469 51.605469 C 25.269531 51.605469 24.4375 51.5625 23.605469 51.480469 C 22.773438 51.398438 21.949219 51.277344 21.128906 51.113281 C 20.308594 50.953125 19.5 50.75 18.703125 50.507812 C 17.902344 50.265625 17.117188 49.984375 16.34375 49.664062 C 15.574219 49.34375 14.820312 48.988281 14.082031 48.59375 C 13.347656 48.199219 12.632812 47.769531 11.9375 47.304688 C 11.242188 46.84375 10.574219 46.347656 9.925781 45.816406 C 9.28125 45.285156 8.664062 44.726562 8.074219 44.136719 C 7.480469 43.542969 6.921875 42.925781 6.390625 42.28125 C 5.863281 41.636719 5.367188 40.964844 4.902344 40.269531 C 4.4375 39.578125 4.007812 38.859375 3.613281 38.125 C 3.222656 37.386719 2.863281 36.632812 2.546875 35.863281 C 2.226562 35.089844 1.945312 34.304688 1.703125 33.507812 C 1.460938 32.707031 1.257812 31.898438 1.09375 31.078125 C 0.929688 30.261719 0.808594 29.433594 0.726562 28.605469 C 0.644531 27.773438 0.605469 26.9375 0.605469 26.105469 C 0.605469 25.269531 0.644531 24.4375 0.726562 23.605469 C 0.808594 22.773438 0.929688 21.949219 1.09375 21.128906 C 1.257812 20.308594 1.460938 19.5 1.703125 18.703125 C 1.945312 17.902344 2.226562 17.117188 2.546875 16.34375 C 2.863281 15.574219 3.222656 14.820312 3.613281 14.082031 C 4.007812 13.347656 4.4375 12.632812 4.902344 11.9375 C 5.367188 11.242188 5.863281 10.574219 6.390625 9.925781 C 6.921875 9.28125 7.480469 8.664062 8.074219 8.074219 C 8.664062 7.480469 9.28125 6.921875 9.925781 6.390625 C 10.574219 5.863281 11.242188 5.367188 11.9375 4.902344 C 12.632812 4.4375 13.347656 4.007812 14.082031 3.613281 C 14.820312 3.222656 15.574219 2.863281 16.34375 2.546875 C 17.117188 2.226562 17.902344 1.945312 18.703125 1.703125 C 19.5 1.460938 20.308594 1.257812 21.128906 1.09375 C 21.949219 0.929688 22.773438 0.808594 23.605469 0.726562 C 24.4375 0.644531 25.269531 0.605469 26.105469 0.605469 C 26.9375 0.605469 27.773438 0.644531 28.605469 0.726562 C 29.433594 0.808594 30.261719 0.929688 31.078125 1.09375 C 31.898438 1.257812 32.707031 1.460938 33.507812 1.703125 C 34.304688 1.945312 35.089844 2.226562 35.863281 2.546875 C 36.632812 2.863281 37.386719 3.222656 38.125 3.613281 C 38.859375 4.007812 39.578125 4.4375 40.269531 4.902344 C 40.964844 5.367188 41.636719 5.863281 42.28125 6.390625 C 42.925781 6.921875 43.542969 7.480469 44.136719 8.074219 C 44.726562 8.664062 45.285156 9.28125 45.816406 9.925781 C 46.347656 10.574219 46.84375 11.242188 47.304688 11.9375 C 47.769531 12.632812 48.199219 13.347656 48.59375 14.082031 C 48.988281 14.820312 49.34375 15.574219 49.664062 16.34375 C 49.984375 17.117188 50.265625 17.902344 50.507812 18.703125 C 50.75 19.5 50.953125 20.308594 51.113281 21.128906 C 51.277344 21.949219 51.398438 22.773438 51.480469 23.605469 C 51.5625 24.4375 51.605469 25.269531 51.605469 26.105469 Z M 51.605469 26.105469 " fill-opacity="1" fill-rule="nonzero"/></g><path fill="#e3f1fa" d="M 24.324219 27.707031 C 20.113281 23.671875 20.765625 21.773438 20.765625 21.773438 C 22.488281 20.113281 22.25 17.921875 22.25 17.921875 C 21.359375 16.734375 20.46875 15.546875 19.582031 14.363281 C 19.582031 14.363281 18.394531 12.40625 16.554688 13.472656 C 11.632812 16.378906 13.175781 21.359375 13.175781 21.359375 C 13.175781 21.417969 14.539062 25.628906 20.765625 31.441406 C 26.992188 37.3125 31.5 38.855469 31.5 38.855469 C 31.5 38.855469 36.601562 40.515625 39.03125 35.828125 C 39.921875 34.050781 37.90625 32.6875 37.90625 32.6875 C 36.660156 31.679688 35.414062 30.730469 34.167969 29.78125 C 34.167969 29.78125 31.914062 29.425781 30.375 31.144531 C 30.375 31.203125 28.476562 31.738281 24.324219 27.707031 Z M 24.324219 27.707031 " fill-opacity="1" fill-rule="nonzero"/></svg>