<svg xmlns="http://www.w3.org/2000/svg" xmlns:xlink="http://www.w3.org/1999/xlink" width="70" zoomAndPan="magnify" viewBox="0 0 52.5 52.499999" height="70" preserveAspectRatio="xMidYMid meet" version="1.0"><defs><clipPath id="3edcb444cd"><path d="M 0 0 L 52.003906 0 L 52.003906 52.003906 L 0 52.003906 Z M 0 0 " clip-rule="nonzero"/></clipPath></defs><g clip-path="url(#3edcb444cd)"><path fill="#53798e" d="M 15.4375 0 C 6.964844 0 0 6.953125 0 15.4375 L 0 37.0625 C 0 45.535156 6.953125 52.5 15.4375 52.5 L 37.0625 52.5 C 45.535156 52.5 52.5 45.546875 52.5 37.0625 L 52.5 15.4375 C 52.5 6.964844 45.546875 0 37.0625 0 Z M 15.4375 4.773438 L 37.0625 4.773438 C 42.964844 4.773438 47.726562 9.535156 47.726562 15.4375 L 47.726562 37.0625 C 47.726562 42.964844 42.964844 47.726562 37.0625 47.726562 L 15.4375 47.726562 C 9.535156 47.726562 4.773438 42.964844 4.773438 37.0625 L 4.773438 15.4375 C 4.773438 9.535156 9.535156 4.773438 15.4375 4.773438 Z M 40.34375 9.992188 C 39.140625 9.992188 38.183594 10.953125 38.183594 12.15625 C 38.183594 13.359375 39.140625 14.316406 40.34375 14.316406 C 41.546875 14.316406 42.507812 13.359375 42.507812 12.15625 C 42.507812 10.953125 41.546875 9.992188 40.34375 9.992188 Z M 26.25 11.933594 C 18.375 11.933594 11.933594 18.375 11.933594 26.25 C 11.933594 34.125 18.375 40.566406 26.25 40.566406 C 34.125 40.566406 40.566406 34.125 40.566406 26.25 C 40.566406 18.375 34.125 11.933594 26.25 11.933594 Z M 26.25 16.703125 C 31.554688 16.703125 35.796875 20.945312 35.796875 26.25 C 35.796875 31.554688 31.554688 35.796875 26.25 35.796875 C 20.945312 35.796875 16.703125 31.554688 16.703125 26.25 C 16.703125 20.945312 20.945312 16.703125 26.25 16.703125 Z M 26.25 16.703125 " fill-opacity="1" fill-rule="nonzero"/></g></svg>