<svg xmlns="http://www.w3.org/2000/svg" xmlns:xlink="http://www.w3.org/1999/xlink" width="70" zoomAndPan="magnify" viewBox="0 0 52.5 52.499999" height="70" preserveAspectRatio="xMidYMid meet" version="1.0"><defs><clipPath id="2c0cfe4c00"><path d="M 0.480469 6.441406 L 52.003906 6.441406 L 52.003906 46.191406 L 0.480469 46.191406 Z M 0.480469 6.441406 " clip-rule="nonzero"/></clipPath></defs><g clip-path="url(#2c0cfe4c00)"><path fill="#53798e" d="M 4.476562 6.441406 C 2.304688 6.441406 0.5 8.242188 0.5 10.414062 L 0.5 42.214844 C 0.5 44.386719 2.304688 46.191406 4.476562 46.191406 L 48.234375 46.191406 C 50.410156 46.191406 52.214844 44.386719 52.214844 42.214844 L 52.214844 10.414062 C 52.214844 8.242188 50.410156 6.441406 48.234375 6.441406 Z M 9.847656 10.414062 L 42.867188 10.414062 L 26.355469 22.609375 Z M 6.464844 15.332031 L 26.355469 30.023438 L 46.246094 15.332031 L 46.246094 42.214844 L 6.464844 42.214844 Z M 6.464844 15.332031 " fill-opacity="1" fill-rule="nonzero"/></g></svg>