<svg xmlns="http://www.w3.org/2000/svg" xmlns:xlink="http://www.w3.org/1999/xlink" width="70" zoomAndPan="magnify" viewBox="0 0 52.5 52.499999" height="70" preserveAspectRatio="xMidYMid meet" version="1.0"><defs><clipPath id="dd4b2bbdeb"><path d="M 15 29 L 37 29 L 37 40.054688 L 15 40.054688 Z M 15 29 " clip-rule="nonzero"/></clipPath><clipPath id="0b3493b92a"><path d="M 32 25 L 52.003906 25 L 52.003906 36 L 32 36 Z M 32 25 " clip-rule="nonzero"/></clipPath></defs><path fill="#53798e" d="M 30.234375 18.875 C 30.492188 19.136719 30.726562 19.417969 30.933594 19.726562 C 31.136719 20.03125 31.3125 20.351562 31.453125 20.691406 C 31.59375 21.03125 31.699219 21.382812 31.773438 21.742188 C 31.84375 22.105469 31.882812 22.46875 31.882812 22.835938 C 31.882812 23.203125 31.84375 23.566406 31.773438 23.929688 C 31.699219 24.289062 31.59375 24.640625 31.453125 24.980469 C 31.3125 25.320312 31.136719 25.640625 30.933594 25.949219 C 30.726562 26.253906 30.492188 26.535156 30.234375 26.796875 C 29.972656 27.054688 29.6875 27.289062 29.378906 27.492188 C 29.074219 27.695312 28.75 27.871094 28.40625 28.011719 C 28.066406 28.152344 27.714844 28.257812 27.351562 28.328125 C 26.988281 28.398438 26.621094 28.4375 26.253906 28.4375 C 25.882812 28.4375 25.515625 28.398438 25.15625 28.328125 C 24.792969 28.257812 24.441406 28.152344 24.097656 28.011719 C 23.757812 27.871094 23.433594 27.695312 23.125 27.492188 C 22.820312 27.289062 22.535156 27.054688 22.273438 26.796875 C 22.011719 26.535156 21.777344 26.253906 21.574219 25.949219 C 21.367188 25.640625 21.195312 25.320312 21.054688 24.980469 C 20.910156 24.640625 20.804688 24.289062 20.734375 23.929688 C 20.660156 23.566406 20.625 23.203125 20.625 22.835938 C 20.625 22.46875 20.660156 22.105469 20.734375 21.742188 C 20.804688 21.382812 20.910156 21.03125 21.054688 20.691406 C 21.195312 20.355469 21.367188 20.03125 21.574219 19.726562 C 21.777344 19.417969 22.011719 19.136719 22.273438 18.875 C 22.535156 18.617188 22.820312 18.382812 23.125 18.179688 C 23.433594 17.976562 23.757812 17.804688 24.097656 17.664062 C 24.441406 17.523438 24.792969 17.414062 25.15625 17.34375 C 25.515625 17.273438 25.882812 17.238281 26.253906 17.234375 C 26.621094 17.234375 26.988281 17.273438 27.351562 17.34375 C 27.714844 17.414062 28.066406 17.523438 28.40625 17.664062 C 28.75 17.804688 29.074219 17.976562 29.378906 18.179688 C 29.6875 18.382812 29.972656 18.617188 30.234375 18.875 Z M 30.234375 18.875 " fill-opacity="1" fill-rule="nonzero"/><g clip-path="url(#dd4b2bbdeb)"><path fill="#53798e" d="M 31.160156 29.6875 L 21.328125 29.6875 C 18.363281 29.6875 15.949219 32.078125 15.949219 35.039062 L 15.949219 37.226562 C 18.960938 39.019531 22.472656 40.054688 26.238281 40.054688 C 30.003906 40.054688 33.515625 39.019531 36.527344 37.226562 L 36.527344 35.039062 C 36.539062 32.089844 34.136719 29.6875 31.160156 29.6875 Z M 31.160156 29.6875 " fill-opacity="1" fill-rule="nonzero"/></g><path fill="#53798e" d="M 15.972656 18.328125 C 15.996094 18.695312 15.988281 19.0625 15.941406 19.425781 C 15.894531 19.789062 15.8125 20.148438 15.695312 20.496094 C 15.578125 20.84375 15.429688 21.179688 15.246094 21.5 C 15.0625 21.816406 14.851562 22.117188 14.609375 22.394531 C 14.367188 22.671875 14.101562 22.921875 13.808594 23.148438 C 13.515625 23.375 13.203125 23.570312 12.875 23.734375 C 12.542969 23.898438 12.199219 24.027344 11.84375 24.125 C 11.488281 24.222656 11.125 24.285156 10.757812 24.3125 C 10.386719 24.335938 10.019531 24.328125 9.652344 24.28125 C 9.285156 24.234375 8.929688 24.152344 8.578125 24.039062 C 8.226562 23.921875 7.890625 23.773438 7.570312 23.589844 C 7.25 23.40625 6.949219 23.195312 6.667969 22.957031 C 6.390625 22.714844 6.136719 22.449219 5.910156 22.160156 C 5.683594 21.867188 5.488281 21.558594 5.324219 21.230469 C 5.15625 20.902344 5.027344 20.558594 4.929688 20.203125 C 4.832031 19.851562 4.769531 19.488281 4.742188 19.121094 C 4.714844 18.753906 4.726562 18.390625 4.773438 18.023438 C 4.820312 17.660156 4.902344 17.304688 5.015625 16.953125 C 5.132812 16.605469 5.285156 16.269531 5.46875 15.953125 C 5.648438 15.632812 5.863281 15.332031 6.105469 15.054688 C 6.347656 14.777344 6.613281 14.527344 6.90625 14.300781 C 7.199219 14.074219 7.507812 13.878906 7.839844 13.714844 C 8.171875 13.550781 8.515625 13.421875 8.871094 13.324219 C 9.226562 13.226562 9.589844 13.164062 9.957031 13.140625 C 10.328125 13.113281 10.695312 13.125 11.0625 13.167969 C 11.425781 13.214844 11.785156 13.296875 12.136719 13.414062 C 12.488281 13.527344 12.824219 13.679688 13.144531 13.859375 C 13.464844 14.042969 13.765625 14.253906 14.042969 14.496094 C 14.324219 14.734375 14.578125 15 14.804688 15.292969 C 15.03125 15.582031 15.226562 15.890625 15.390625 16.222656 C 15.554688 16.550781 15.6875 16.890625 15.785156 17.246094 C 15.882812 17.601562 15.945312 17.960938 15.972656 18.328125 Z M 15.972656 18.328125 " fill-opacity="1" fill-rule="nonzero"/><path fill="#53798e" d="M 47.699219 17.828125 C 47.757812 18.191406 47.78125 18.554688 47.769531 18.921875 C 47.753906 19.289062 47.707031 19.652344 47.621094 20.011719 C 47.535156 20.367188 47.417969 20.714844 47.265625 21.050781 C 47.109375 21.382812 46.925781 21.699219 46.710938 22 C 46.492188 22.296875 46.25 22.570312 45.980469 22.820312 C 45.710938 23.070312 45.417969 23.292969 45.101562 23.488281 C 44.789062 23.679688 44.457031 23.839844 44.113281 23.96875 C 43.765625 24.097656 43.410156 24.191406 43.046875 24.25 C 42.679688 24.308594 42.3125 24.332031 41.945312 24.320312 C 41.574219 24.308594 41.210938 24.257812 40.851562 24.171875 C 40.492188 24.089844 40.144531 23.96875 39.804688 23.816406 C 39.46875 23.664062 39.152344 23.480469 38.851562 23.265625 C 38.554688 23.050781 38.277344 22.808594 38.023438 22.539062 C 37.773438 22.269531 37.550781 21.980469 37.355469 21.667969 C 37.160156 21.355469 37 21.027344 36.871094 20.679688 C 36.742188 20.335938 36.648438 19.984375 36.589844 19.621094 C 36.527344 19.257812 36.507812 18.890625 36.519531 18.523438 C 36.53125 18.15625 36.582031 17.792969 36.667969 17.4375 C 36.75 17.078125 36.871094 16.734375 37.023438 16.398438 C 37.175781 16.0625 37.363281 15.746094 37.578125 15.449219 C 37.792969 15.152344 38.039062 14.875 38.308594 14.625 C 38.578125 14.375 38.871094 14.152344 39.183594 13.960938 C 39.5 13.765625 39.828125 13.605469 40.175781 13.476562 C 40.523438 13.347656 40.878906 13.253906 41.242188 13.195312 C 41.609375 13.136719 41.972656 13.113281 42.34375 13.128906 C 42.714844 13.140625 43.078125 13.1875 43.4375 13.273438 C 43.796875 13.359375 44.144531 13.476562 44.480469 13.628906 C 44.816406 13.78125 45.136719 13.964844 45.433594 14.179688 C 45.734375 14.394531 46.011719 14.636719 46.261719 14.90625 C 46.515625 15.175781 46.738281 15.46875 46.933594 15.78125 C 47.125 16.09375 47.289062 16.421875 47.417969 16.765625 C 47.546875 17.109375 47.640625 17.464844 47.699219 17.828125 Z M 47.699219 17.828125 " fill-opacity="1" fill-rule="nonzero"/><path fill="#53798e" d="M 19.964844 28.308594 C 19.042969 26.679688 17.289062 25.585938 15.28125 25.585938 L 5.445312 25.585938 C 2.480469 25.585938 0.0664062 27.976562 0.0664062 30.933594 L 0.0664062 33.125 C 3.078125 34.917969 6.59375 35.953125 10.355469 35.953125 C 11.753906 35.953125 13.117188 35.808594 14.433594 35.535156 L 14.433594 35.039062 C 14.433594 31.71875 16.808594 28.9375 19.964844 28.308594 Z M 19.964844 28.308594 " fill-opacity="1" fill-rule="nonzero"/><g clip-path="url(#0b3493b92a)"><path fill="#53798e" d="M 47.054688 25.585938 L 37.21875 25.585938 C 35.210938 25.585938 33.457031 26.679688 32.535156 28.308594 C 35.691406 28.9375 38.066406 31.71875 38.066406 35.039062 L 38.066406 35.535156 C 39.382812 35.808594 40.746094 35.953125 42.144531 35.953125 C 45.90625 35.953125 49.421875 34.917969 52.433594 33.125 L 52.433594 30.933594 C 52.433594 27.976562 50.019531 25.585938 47.054688 25.585938 Z M 47.054688 25.585938 " fill-opacity="1" fill-rule="nonzero"/></g></svg>