<svg xmlns="http://www.w3.org/2000/svg" xmlns:xlink="http://www.w3.org/1999/xlink" width="70" zoomAndPan="magnify" viewBox="0 0 52.5 52.499999" height="70" preserveAspectRatio="xMidYMid meet" version="1.0"><defs><clipPath id="1cb4ecda75"><path d="M 3 23 L 45 23 L 45 49.453125 L 3 49.453125 Z M 3 23 " clip-rule="nonzero"/></clipPath><clipPath id="3c6b746413"><path d="M 41 24 L 52.003906 24 L 52.003906 33 L 41 33 Z M 41 24 " clip-rule="nonzero"/></clipPath></defs><path fill="#53798e" d="M 27.445312 36.480469 L 25.019531 36.480469 C 24.503906 36.480469 24.003906 36.382812 23.527344 36.1875 C 23.046875 35.988281 22.625 35.707031 22.257812 35.34375 C 21.890625 34.976562 21.609375 34.554688 21.410156 34.078125 C 21.210938 33.601562 21.113281 33.105469 21.113281 32.589844 L 21.113281 31.625 C 21.113281 31.382812 21.199219 31.171875 21.371094 31 C 21.542969 30.828125 21.75 30.742188 21.996094 30.742188 C 22.238281 30.742188 22.445312 30.828125 22.617188 31 C 22.792969 31.171875 22.878906 31.382812 22.878906 31.625 L 22.878906 32.589844 C 22.878906 32.871094 22.933594 33.144531 23.042969 33.40625 C 23.152344 33.664062 23.304688 33.894531 23.507812 34.097656 C 23.707031 34.296875 23.9375 34.449219 24.203125 34.558594 C 24.464844 34.667969 24.734375 34.71875 25.019531 34.71875 L 27.445312 34.71875 C 27.726562 34.71875 28 34.664062 28.261719 34.554688 C 28.523438 34.449219 28.753906 34.292969 28.953125 34.09375 C 29.152344 33.894531 29.308594 33.664062 29.417969 33.402344 C 29.527344 33.140625 29.582031 32.871094 29.582031 32.589844 L 29.582031 30.53125 C 29.550781 30.167969 29.421875 29.84375 29.199219 29.554688 C 28.976562 29.265625 28.691406 29.0625 28.34375 28.941406 L 23.390625 27.039062 C 23.058594 26.925781 22.75 26.765625 22.46875 26.554688 C 22.183594 26.347656 21.941406 26.101562 21.738281 25.816406 C 21.53125 25.53125 21.378906 25.21875 21.269531 24.886719 C 21.164062 24.550781 21.109375 24.210938 21.113281 23.859375 L 21.113281 21.808594 C 21.113281 21.292969 21.210938 20.796875 21.410156 20.320312 C 21.609375 19.84375 21.890625 19.421875 22.257812 19.054688 C 22.621094 18.691406 23.042969 18.40625 23.519531 18.210938 C 24 18.011719 24.496094 17.910156 25.015625 17.910156 L 27.445312 17.910156 C 27.960938 17.910156 28.460938 18.007812 28.9375 18.207031 C 29.417969 18.40625 29.839844 18.6875 30.203125 19.054688 C 30.570312 19.417969 30.851562 19.839844 31.050781 20.316406 C 31.246094 20.796875 31.347656 21.292969 31.347656 21.808594 L 31.347656 22.765625 C 31.347656 23.011719 31.261719 23.21875 31.089844 23.390625 C 30.914062 23.5625 30.707031 23.648438 30.464844 23.648438 C 30.21875 23.648438 30.011719 23.5625 29.839844 23.390625 C 29.667969 23.21875 29.582031 23.011719 29.582031 22.765625 L 29.582031 21.808594 C 29.582031 21.527344 29.527344 21.253906 29.417969 20.992188 C 29.308594 20.730469 29.15625 20.5 28.957031 20.300781 C 28.753906 20.097656 28.523438 19.945312 28.261719 19.835938 C 28 19.726562 27.726562 19.671875 27.445312 19.671875 L 25.015625 19.671875 C 24.730469 19.671875 24.457031 19.726562 24.195312 19.835938 C 23.933594 19.945312 23.703125 20.097656 23.503906 20.300781 C 23.300781 20.5 23.148438 20.730469 23.039062 20.992188 C 22.933594 21.253906 22.878906 21.527344 22.878906 21.808594 L 22.878906 23.859375 C 22.875 24.210938 22.980469 24.527344 23.191406 24.8125 C 23.402344 25.09375 23.675781 25.285156 24.011719 25.386719 L 29.023438 27.3125 C 29.351562 27.4375 29.660156 27.605469 29.941406 27.820312 C 30.222656 28.035156 30.464844 28.285156 30.671875 28.570312 C 30.878906 28.859375 31.039062 29.167969 31.15625 29.503906 C 31.269531 29.835938 31.332031 30.179688 31.347656 30.53125 L 31.347656 32.589844 C 31.347656 33.105469 31.246094 33.601562 31.050781 34.078125 C 30.851562 34.554688 30.570312 34.976562 30.203125 35.339844 C 29.839844 35.707031 29.417969 35.988281 28.9375 36.1875 C 28.460938 36.382812 27.960938 36.480469 27.445312 36.480469 Z M 27.445312 36.480469 " fill-opacity="1" fill-rule="nonzero"/><path fill="#53798e" d="M 26.230469 18.9375 C 25.996094 18.933594 25.792969 18.847656 25.625 18.675781 C 25.457031 18.507812 25.371094 18.304688 25.367188 18.066406 L 25.367188 15.601562 C 25.367188 15.359375 25.453125 15.148438 25.625 14.976562 C 25.796875 14.804688 26.007812 14.71875 26.25 14.71875 C 26.492188 14.71875 26.703125 14.804688 26.875 14.976562 C 27.046875 15.148438 27.132812 15.359375 27.132812 15.601562 L 27.132812 18.066406 C 27.128906 18.3125 27.039062 18.519531 26.863281 18.691406 C 26.6875 18.859375 26.476562 18.941406 26.230469 18.9375 Z M 26.230469 18.9375 " fill-opacity="1" fill-rule="nonzero"/><path fill="#53798e" d="M 26.230469 39.570312 C 25.988281 39.570312 25.78125 39.484375 25.609375 39.3125 C 25.4375 39.140625 25.347656 38.933594 25.347656 38.691406 L 25.347656 35.753906 C 25.347656 35.511719 25.4375 35.304688 25.609375 35.132812 C 25.78125 34.957031 25.988281 34.871094 26.230469 34.871094 C 26.476562 34.871094 26.683594 34.957031 26.855469 35.132812 C 27.027344 35.304688 27.113281 35.511719 27.113281 35.753906 L 27.113281 38.691406 C 27.113281 38.933594 27.027344 39.140625 26.855469 39.3125 C 26.683594 39.484375 26.476562 39.570312 26.230469 39.570312 Z M 26.230469 39.570312 " fill-opacity="1" fill-rule="nonzero"/><path fill="#53798e" d="M 46.863281 30.992188 L 46.738281 30.992188 C 46.492188 30.964844 46.292969 30.851562 46.140625 30.65625 C 45.992188 30.460938 45.933594 30.242188 45.96875 29.996094 C 46.125 28.871094 46.191406 27.734375 46.160156 26.597656 C 46.125 25.457031 46 24.328125 45.773438 23.210938 C 45.550781 22.09375 45.234375 21.003906 44.828125 19.9375 C 44.417969 18.875 43.921875 17.851562 43.34375 16.871094 C 42.761719 15.890625 42.101562 14.964844 41.363281 14.09375 C 40.625 13.226562 39.816406 12.425781 38.941406 11.691406 C 38.070312 10.957031 37.140625 10.304688 36.15625 9.726562 C 35.167969 9.152344 34.144531 8.660156 33.074219 8.257812 C 32.007812 7.855469 30.914062 7.542969 29.792969 7.324219 C 28.671875 7.105469 27.539062 6.984375 26.398438 6.957031 C 25.257812 6.929688 24.121094 6.996094 22.992188 7.160156 C 21.859375 7.324219 20.753906 7.582031 19.664062 7.933594 C 18.578125 8.285156 17.53125 8.726562 16.519531 9.253906 C 15.507812 9.78125 14.546875 10.390625 13.636719 11.082031 C 12.730469 11.769531 11.886719 12.53125 11.105469 13.363281 C 10.324219 14.199219 9.621094 15.089844 8.992188 16.042969 C 8.859375 16.246094 8.671875 16.371094 8.433594 16.421875 C 8.195312 16.46875 7.972656 16.429688 7.769531 16.292969 C 7.566406 16.160156 7.4375 15.972656 7.390625 15.734375 C 7.339844 15.496094 7.382812 15.277344 7.515625 15.070312 C 8.199219 14.035156 8.964844 13.066406 9.8125 12.15625 C 10.660156 11.25 11.578125 10.421875 12.566406 9.671875 C 13.554688 8.917969 14.597656 8.253906 15.699219 7.679688 C 16.796875 7.105469 17.941406 6.625 19.121094 6.242188 C 20.304688 5.859375 21.507812 5.578125 22.738281 5.398438 C 23.96875 5.21875 25.203125 5.144531 26.445312 5.175781 C 27.6875 5.203125 28.917969 5.335938 30.136719 5.574219 C 31.359375 5.8125 32.546875 6.152344 33.710938 6.589844 C 34.875 7.027344 35.992188 7.558594 37.0625 8.1875 C 38.132812 8.8125 39.144531 9.527344 40.097656 10.324219 C 41.046875 11.121094 41.925781 11.996094 42.726562 12.941406 C 43.53125 13.886719 44.25 14.894531 44.882812 15.960938 C 45.515625 17.027344 46.054688 18.140625 46.496094 19.296875 C 46.941406 20.457031 47.285156 21.644531 47.527344 22.859375 C 47.769531 24.074219 47.910156 25.304688 47.941406 26.542969 C 47.976562 27.78125 47.90625 29.015625 47.734375 30.246094 C 47.699219 30.457031 47.597656 30.636719 47.433594 30.777344 C 47.269531 30.917969 47.078125 30.988281 46.863281 30.992188 Z M 46.863281 30.992188 " fill-opacity="1" fill-rule="nonzero"/><g clip-path="url(#1cb4ecda75)"><path fill="#53798e" d="M 25.832031 49.117188 C 23.179688 49.117188 20.613281 48.652344 18.132812 47.71875 C 16.972656 47.273438 15.859375 46.738281 14.792969 46.105469 C 13.722656 45.476562 12.714844 44.761719 11.765625 43.960938 C 10.816406 43.160156 9.941406 42.289062 9.140625 41.339844 C 8.339844 40.394531 7.625 39.386719 6.992188 38.320312 C 6.359375 37.253906 5.820312 36.140625 5.378906 34.984375 C 4.933594 33.828125 4.589844 32.640625 4.34375 31.425781 C 4.097656 30.210938 3.957031 28.984375 3.917969 27.746094 C 3.878906 26.507812 3.945312 25.273438 4.113281 24.046875 C 4.148438 23.804688 4.265625 23.613281 4.460938 23.46875 C 4.65625 23.320312 4.875 23.265625 5.113281 23.300781 C 5.355469 23.335938 5.550781 23.449219 5.695312 23.644531 C 5.839844 23.835938 5.898438 24.054688 5.863281 24.292969 C 5.699219 25.425781 5.632812 26.558594 5.664062 27.703125 C 5.691406 28.84375 5.820312 29.972656 6.042969 31.09375 C 6.261719 32.214844 6.578125 33.308594 6.984375 34.375 C 7.394531 35.441406 7.886719 36.464844 8.46875 37.449219 C 9.050781 38.433594 9.710938 39.359375 10.449219 40.230469 C 11.191406 41.101562 11.996094 41.90625 12.871094 42.640625 C 13.75 43.375 14.679688 44.03125 15.667969 44.609375 C 16.652344 45.1875 17.683594 45.675781 18.75 46.082031 C 19.820312 46.484375 20.917969 46.796875 22.042969 47.015625 C 23.164062 47.234375 24.296875 47.355469 25.441406 47.382812 C 26.585938 47.410156 27.722656 47.339844 28.855469 47.171875 C 29.988281 47.007812 31.097656 46.746094 32.183594 46.394531 C 33.273438 46.042969 34.324219 45.597656 35.335938 45.066406 C 36.347656 44.535156 37.308594 43.925781 38.21875 43.230469 C 39.128906 42.539062 39.972656 41.773438 40.75 40.9375 C 41.527344 40.101562 42.230469 39.207031 42.859375 38.25 C 42.988281 38.039062 43.175781 37.902344 43.417969 37.847656 C 43.660156 37.792969 43.886719 37.832031 44.097656 37.96875 C 44.304688 38.105469 44.433594 38.296875 44.480469 38.539062 C 44.527344 38.785156 44.480469 39.011719 44.335938 39.214844 C 43.324219 40.738281 42.140625 42.117188 40.789062 43.347656 C 39.433594 44.578125 37.949219 45.625 36.332031 46.492188 C 34.71875 47.355469 33.023438 48.007812 31.246094 48.453125 C 29.46875 48.898438 27.664062 49.117188 25.832031 49.117188 Z M 25.832031 49.117188 " fill-opacity="1" fill-rule="nonzero"/></g><g clip-path="url(#3c6b746413)"><path fill="#53798e" d="M 46.777344 32.601562 L 46.742188 32.601562 C 46.4375 32.589844 46.203125 32.453125 46.039062 32.199219 L 41.746094 25.609375 C 41.613281 25.40625 41.574219 25.183594 41.625 24.945312 C 41.675781 24.707031 41.804688 24.523438 42.007812 24.390625 C 42.214844 24.257812 42.433594 24.21875 42.671875 24.269531 C 42.914062 24.320312 43.097656 24.449219 43.230469 24.652344 L 46.839844 30.191406 L 50.792969 25.027344 C 50.941406 24.835938 51.136719 24.722656 51.378906 24.6875 C 51.621094 24.65625 51.835938 24.714844 52.03125 24.859375 C 52.226562 25.007812 52.339844 25.203125 52.371094 25.445312 C 52.40625 25.6875 52.347656 25.902344 52.199219 26.097656 L 47.492188 32.257812 C 47.308594 32.488281 47.074219 32.605469 46.777344 32.601562 Z M 46.777344 32.601562 " fill-opacity="1" fill-rule="nonzero"/></g><path fill="#53798e" d="M 9.976562 30.820312 C 9.652344 30.816406 9.410156 30.675781 9.242188 30.402344 L 5.597656 24.898438 L 1.664062 30.125 C 1.597656 30.230469 1.515625 30.316406 1.414062 30.382812 C 1.3125 30.449219 1.199219 30.496094 1.078125 30.515625 C 0.957031 30.539062 0.835938 30.535156 0.71875 30.507812 C 0.597656 30.476562 0.492188 30.425781 0.390625 30.351562 C 0.292969 30.28125 0.214844 30.191406 0.15625 30.082031 C 0.09375 29.976562 0.0585938 29.863281 0.046875 29.742188 C 0.03125 29.617188 0.046875 29.5 0.0820312 29.382812 C 0.121094 29.265625 0.179688 29.160156 0.257812 29.070312 L 4.96875 22.859375 C 5.152344 22.617188 5.398438 22.5 5.703125 22.515625 C 6.007812 22.523438 6.242188 22.652344 6.410156 22.90625 L 10.710938 29.457031 C 10.902344 29.75 10.914062 30.050781 10.75 30.355469 C 10.582031 30.664062 10.324219 30.820312 9.976562 30.820312 Z M 9.976562 30.820312 " fill-opacity="1" fill-rule="nonzero"/></svg>