<svg xmlns="http://www.w3.org/2000/svg" xmlns:xlink="http://www.w3.org/1999/xlink" width="70" zoomAndPan="magnify" viewBox="0 0 52.5 52.499999" height="70" preserveAspectRatio="xMidYMid meet" version="1.0"><defs><clipPath id="ed27fa6128"><path d="M 7 32 L 26 32 L 26 52.003906 L 7 52.003906 Z M 7 32 " clip-rule="nonzero"/></clipPath><clipPath id="3340428b11"><path d="M 25 32 L 44 32 L 44 52.003906 L 25 52.003906 Z M 25 32 " clip-rule="nonzero"/></clipPath><clipPath id="9fa2508195"><path d="M 5.25 0.0390625 L 45.746094 0.0390625 L 45.746094 40.929688 L 5.25 40.929688 Z M 5.25 0.0390625 " clip-rule="nonzero"/></clipPath></defs><g clip-path="url(#ed27fa6128)"><path fill="#53798e" d="M 25.730469 38.1875 L 18.542969 52.460938 L 15.007812 45.476562 L 7.328125 46.726562 L 14.511719 32.449219 L 25.730469 38.1875 " fill-opacity="1" fill-rule="nonzero"/></g><g clip-path="url(#3340428b11)"><path fill="#53798e" d="M 36.871094 32.449219 L 43.671875 46.917969 L 36.023438 45.457031 L 32.304688 52.34375 L 25.503906 37.878906 L 36.871094 32.449219 " fill-opacity="1" fill-rule="nonzero"/></g><g clip-path="url(#9fa2508195)"><path fill="#7ab2cc" d="M 26.332031 0.390625 L 27.269531 1.351562 C 27.644531 1.738281 28.230469 1.816406 28.691406 1.539062 L 29.84375 0.855469 C 30.40625 0.523438 31.132812 0.71875 31.453125 1.289062 L 32.109375 2.464844 C 32.375 2.933594 32.921875 3.164062 33.4375 3.019531 L 34.726562 2.65625 C 35.355469 2.480469 36.007812 2.859375 36.167969 3.496094 L 36.503906 4.800781 C 36.636719 5.324219 37.109375 5.6875 37.644531 5.683594 L 38.980469 5.671875 C 39.632812 5.664062 40.164062 6.199219 40.160156 6.859375 L 40.144531 8.207031 C 40.140625 8.746094 40.503906 9.21875 41.019531 9.355469 L 42.316406 9.691406 C 42.949219 9.855469 43.324219 10.511719 43.148438 11.144531 L 42.789062 12.441406 C 42.648438 12.964844 42.875 13.515625 43.339844 13.78125 L 44.503906 14.445312 C 45.074219 14.769531 45.265625 15.5 44.933594 16.066406 L 44.257812 17.226562 C 43.984375 17.691406 44.0625 18.285156 44.445312 18.664062 L 45.398438 19.605469 C 45.863281 20.066406 45.863281 20.824219 45.398438 21.285156 L 44.445312 22.230469 C 44.0625 22.605469 43.984375 23.199219 44.257812 23.664062 L 44.933594 24.824219 C 45.265625 25.390625 45.074219 26.121094 44.503906 26.445312 L 43.339844 27.109375 C 42.875 27.375 42.648438 27.925781 42.789062 28.449219 L 43.148438 29.746094 C 43.324219 30.378906 42.949219 31.035156 42.316406 31.199219 L 41.019531 31.535156 C 40.503906 31.671875 40.140625 32.144531 40.144531 32.6875 L 40.160156 34.03125 C 40.164062 34.691406 39.632812 35.226562 38.980469 35.21875 L 37.644531 35.207031 C 37.109375 35.203125 36.636719 35.566406 36.503906 36.089844 L 36.167969 37.394531 C 36.007812 38.03125 35.355469 38.410156 34.726562 38.234375 L 33.4375 37.871094 C 32.921875 37.726562 32.375 37.957031 32.109375 38.425781 L 31.453125 39.601562 C 31.132812 40.171875 30.40625 40.367188 29.84375 40.035156 L 28.691406 39.347656 C 28.230469 39.074219 27.644531 39.152344 27.269531 39.539062 L 26.332031 40.5 C 25.875 40.96875 25.125 40.96875 24.664062 40.5 L 23.730469 39.539062 C 23.355469 39.152344 22.765625 39.074219 22.304688 39.347656 L 21.152344 40.035156 C 20.589844 40.367188 19.867188 40.171875 19.542969 39.601562 L 18.886719 38.425781 C 18.621094 37.957031 18.074219 37.726562 17.558594 37.871094 L 16.269531 38.234375 C 15.640625 38.410156 14.992188 38.03125 14.828125 37.394531 L 14.492188 36.089844 C 14.359375 35.566406 13.890625 35.203125 13.351562 35.207031 L 12.015625 35.21875 C 11.363281 35.226562 10.832031 34.691406 10.839844 34.03125 L 10.851562 32.6875 C 10.855469 32.144531 10.496094 31.671875 9.976562 31.535156 L 8.679688 31.199219 C 8.050781 31.035156 7.675781 30.378906 7.847656 29.746094 L 8.207031 28.449219 C 8.351562 27.925781 8.125 27.375 7.65625 27.109375 L 6.492188 26.445312 C 5.925781 26.121094 5.730469 25.390625 6.0625 24.824219 L 6.742188 23.664062 C 7.011719 23.199219 6.933594 22.605469 6.554688 22.230469 L 5.597656 21.285156 C 5.132812 20.824219 5.132812 20.066406 5.597656 19.605469 L 6.554688 18.664062 C 6.933594 18.285156 7.011719 17.691406 6.742188 17.226562 L 6.0625 16.066406 C 5.730469 15.5 5.925781 14.769531 6.492188 14.445312 L 7.65625 13.78125 C 8.125 13.515625 8.351562 12.964844 8.207031 12.441406 L 7.847656 11.144531 C 7.675781 10.511719 8.050781 9.855469 8.679688 9.691406 L 9.976562 9.355469 C 10.496094 9.21875 10.855469 8.746094 10.851562 8.207031 L 10.839844 6.859375 C 10.832031 6.199219 11.363281 5.664062 12.015625 5.671875 L 13.351562 5.683594 C 13.890625 5.6875 14.359375 5.324219 14.492188 4.800781 L 14.828125 3.496094 C 14.992188 2.859375 15.640625 2.480469 16.269531 2.65625 L 17.558594 3.019531 C 18.074219 3.164062 18.621094 2.933594 18.886719 2.464844 L 19.542969 1.289062 C 19.867188 0.71875 20.589844 0.523438 21.152344 0.855469 L 22.304688 1.539062 C 22.765625 1.816406 23.355469 1.738281 23.730469 1.351562 L 24.664062 0.390625 C 25.125 -0.078125 25.875 -0.078125 26.332031 0.390625 " fill-opacity="1" fill-rule="nonzero"/></g><path fill="#e3f1fa" d="M 25.5 5.398438 C 17.265625 5.398438 10.566406 12.148438 10.566406 20.445312 C 10.566406 28.742188 17.265625 35.492188 25.5 35.492188 C 33.730469 35.492188 40.429688 28.742188 40.429688 20.445312 C 40.429688 12.148438 33.730469 5.398438 25.5 5.398438 Z M 25.5 35.929688 C 23.425781 35.929688 21.410156 35.519531 19.515625 34.714844 C 17.6875 33.933594 16.042969 32.816406 14.632812 31.394531 C 13.222656 29.972656 12.113281 28.316406 11.339844 26.472656 C 10.539062 24.5625 10.132812 22.535156 10.132812 20.445312 C 10.132812 18.355469 10.539062 16.328125 11.339844 14.417969 C 12.113281 12.574219 13.222656 10.917969 14.632812 9.496094 C 16.042969 8.074219 17.6875 6.957031 19.515625 6.175781 C 21.410156 5.371094 23.425781 4.960938 25.5 4.960938 C 27.574219 4.960938 29.585938 5.371094 31.480469 6.175781 C 33.308594 6.957031 34.953125 8.074219 36.363281 9.496094 C 37.773438 10.917969 38.882812 12.574219 39.65625 14.417969 C 40.457031 16.328125 40.863281 18.355469 40.863281 20.445312 C 40.863281 22.535156 40.457031 24.5625 39.65625 26.472656 C 38.882812 28.316406 37.773438 29.972656 36.363281 31.394531 C 34.953125 32.816406 33.308594 33.933594 31.480469 34.714844 C 29.585938 35.519531 27.574219 35.929688 25.5 35.929688 " fill-opacity="1" fill-rule="nonzero"/><path fill="#e3f1fa" d="M 22.28125 29.628906 L 14.996094 22.398438 L 17.265625 20.070312 L 22.148438 24.914062 L 33.398438 12.378906 L 35.800781 14.570312 L 22.28125 29.628906 " fill-opacity="1" fill-rule="nonzero"/></svg>